# xmcd
#
# Track frame offsets:
#	150
#	14894
#	31775
#	49384
#	68695
#	84571
#	99892
#
# Disc length: 1637 seconds
#
# Revision: 0
# Processed by: cddbd v1.5.2PL0 Copyright (c) Steve Scherf et al.
# Submitted via: EasyCDDAExtractor 10.0.2.1
#
DISCID=52066307
DTITLE=Catweazel - Rehearsal Tape
DYEAR=1990
DGENRE=
TTITLE0=Another Day
TTITLE1=Crazy Hippy
TTITLE2=(This Isn't) Where It's At
TTITLE3=Pesky Injun
TTITLE4=Unbeliever
TTITLE5=Now It's Gone
TTITLE6=Up To You
EXTD=
EXTT0=
EXTT1=
EXTT2=
EXTT3=
EXTT4=
EXTT5=
EXTT6=
PLAYORDER=
